<?xml version="1.0" standalone="no"?>
<!DOCTYPE svg PUBLIC "-//W3C//DTD SVG 20010904//EN"
 "http://www.w3.org/TR/2001/REC-SVG-20010904/DTD/svg10.dtd">
<svg version="1.0" xmlns="http://www.w3.org/2000/svg"
 width="344.000000pt" height="326.000000pt" viewBox="0 0 344.000000 326.000000"
 preserveAspectRatio="xMidYMid meet">

<g transform="translate(0.000000,326.000000) scale(0.100000,-0.100000)"
fill="#000000" stroke="none">
<path d="M1832 2799 c-88 -8 -109 -13 -192 -46 -218 -87 -388 -287 -436 -514
-19 -90 -14 -266 11 -349 79 -263 313 -466 576 -500 97 -12 219 -13 219 0 0 5
-29 54 -65 109 -76 115 -116 199 -147 308 -20 69 -23 100 -22 263 0 172 2 191
27 275 37 121 94 238 169 346 37 54 58 93 52 98 -13 13 -108 17 -192 10z"/>
<path d="M1058 2423 c-164 -168 -242 -341 -255 -563 -14 -263 68 -474 256
-660 76 -76 114 -104 186 -142 143 -74 251 -100 410 -100 174 1 334 47 470
137 73 48 225 195 208 202 -6 2 -34 -7 -61 -21 -97 -49 -186 -68 -348 -73
-183 -6 -267 11 -414 84 -82 41 -110 62 -206 158 -205 203 -273 377 -261 660
5 128 22 197 77 318 16 37 30 69 30 72 0 15 -23 -3 -92 -72z"/>
<path d="M2686 1550 c-59 -175 -142 -309 -265 -430 -144 -143 -284 -222 -490
-278 -84 -22 -116 -26 -261 -26 -199 0 -291 19 -445 93 -127 60 -215 122 -310
217 -118 119 -190 238 -284 469 -14 34 -25 -87 -17 -194 19 -283 123 -522 307
-702 92 -91 185 -154 313 -214 160 -75 232 -90 436 -90 148 0 189 4 265 23
271 68 527 271 668 532 100 184 146 430 119 635 l-7 50 -29 -85z"/>
</g>
</svg>
